<svg width="417" height="467" viewBox="0 0 417 467" fill="none" xmlns="http://www.w3.org/2000/svg">
<path d="M98.1749 205.74L0.244141 205.951V313.327C0.244141 362.661 37.2886 405.359 86.4822 409.432C88.1676 409.572 89.8179 409.677 91.5033 409.713C122.649 410.696 151.933 397.879 172.51 373.897C186.73 357.324 195.263 336.361 196.667 314.556C200.424 255.952 155.796 207.566 98.1749 205.705V205.74Z" fill="#015853"/>
<path d="M344.74 144.047C384.339 144.047 416.441 111.945 416.441 72.3459C416.441 32.7465 384.339 0.644775 344.74 0.644775C305.14 0.644775 273.039 32.7465 273.039 72.3459C273.039 111.945 305.14 144.047 344.74 144.047Z" fill="#F6B17D"/>
<path d="M331.61 173.578C285.857 167.819 249.164 131.091 243.476 85.338C241.825 71.995 242.738 59.0734 245.864 47.0295H75.4591C33.9553 47.0295 0.281738 80.7031 0.281738 122.207V137.657L99.0903 137.446H99.5819C192.281 140.009 265.07 214.695 265.246 307.429C265.316 347.985 290.879 310.137 265.246 340.755H298.735C346.981 340.755 321.056 297.965 350.76 307.429L370.059 171.225C357.945 174.315 344.988 175.263 331.61 173.578Z" fill="#015853"/>
<path d="M221.439 368.265L358.142 361.952L386.339 225.271C387.553 219.387 394.022 215.424 400.886 216.509C407.713 217.553 412.256 223.174 411.041 229.068L381.101 374.205C380.079 379.156 375.242 382.851 369.415 383.119L360.047 383.553V454.085C360.047 460.071 354.423 464.911 347.505 464.911C340.582 464.911 334.964 460.057 334.964 454.085V384.712L260.711 388.135V455.438C260.711 461.424 255.093 466.264 248.17 466.264C241.247 466.264 235.629 461.41 235.629 455.438V389.299L222.793 389.885C222.574 389.895 222.349 389.899 222.119 389.899C215.501 389.899 209.963 385.424 209.61 379.65C209.208 373.683 214.516 368.579 221.439 368.265Z" fill="#005953"/>
<path d="M136.899 428.631L151.993 326.416L152.523 325.944C154.363 318.735 160.933 313.068 169.248 311.451L169.28 311.433L169.398 311.409C169.606 311.382 169.804 311.354 170.018 311.322L270.681 295.96L295.383 183.412C304.19 148.056 336.202 149.049 346.02 150.98C363.617 154.43 378.705 163.612 378.705 179.191C378.705 179.588 378.582 179.966 378.571 180.359L378.705 180.465L378.325 182.391C378.175 183.611 377.967 184.844 377.64 185.998L351.242 323.353C348.138 336.918 335.073 347.246 318.909 348.756L318.46 349.112L199.954 357.416L191.998 432.479L191.73 432.47C190.425 444.571 178.756 454.09 164.395 454.09C149.163 454.09 136.808 443.434 136.808 430.271C136.808 429.726 136.958 429.186 136.996 428.645L136.899 428.631Z" fill="#F6B17D"/>
</svg>
